<mxfile host="app.diagrams.net" agent="Mozilla/5.0 (Windows NT 10.0; Win64; x64) AppleWebKit/537.36 (KHTML, like Gecko) Chrome/130.0.0.0 Safari/537.36" version="24.8.6">
  <diagram name="Halaman-1" id="fqVSeHhVZzrJKFvBmT3e">
    <mxGraphModel dx="880" dy="468" grid="1" gridSize="10" guides="1" tooltips="1" connect="1" arrows="1" fold="1" page="1" pageScale="1" pageWidth="827" pageHeight="1169" math="0" shadow="0">
      <root>
        <mxCell id="0" />
        <mxCell id="1" parent="0" />
        <mxCell id="hkS3TEEYYJLq3DjDljIm-1" value="Start" style="whiteSpace=wrap;strokeWidth=2;" vertex="1" parent="1">
          <mxGeometry x="140" y="20" width="96" height="49" as="geometry" />
        </mxCell>
        <mxCell id="hkS3TEEYYJLq3DjDljIm-2" value="Setup" style="whiteSpace=wrap;strokeWidth=2;" vertex="1" parent="1">
          <mxGeometry x="137" y="119" width="101" height="49" as="geometry" />
        </mxCell>
        <mxCell id="hkS3TEEYYJLq3DjDljIm-3" value="DisplayPortal" style="whiteSpace=wrap;strokeWidth=2;" vertex="1" parent="1">
          <mxGeometry x="111" y="218" width="154" height="49" as="geometry" />
        </mxCell>
        <mxCell id="hkS3TEEYYJLq3DjDljIm-4" value="Pengguna atur WiFi?" style="rhombus;strokeWidth=2;whiteSpace=wrap;" vertex="1" parent="1">
          <mxGeometry x="91" y="317" width="193" height="193" as="geometry" />
        </mxCell>
        <mxCell id="hkS3TEEYYJLq3DjDljIm-5" value="WiFi Terhubung?" style="rhombus;strokeWidth=2;whiteSpace=wrap;" vertex="1" parent="1">
          <mxGeometry x="32" y="583" width="166" height="166" as="geometry" />
        </mxCell>
        <mxCell id="hkS3TEEYYJLq3DjDljIm-6" value="FailedWiFi" style="whiteSpace=wrap;strokeWidth=2;" vertex="1" parent="1">
          <mxGeometry x="215" y="822" width="135" height="49" as="geometry" />
        </mxCell>
        <mxCell id="hkS3TEEYYJLq3DjDljIm-7" value="SuccessWiFi" style="whiteSpace=wrap;strokeWidth=2;" vertex="1" parent="1">
          <mxGeometry x="20" y="822" width="145" height="49" as="geometry" />
        </mxCell>
        <mxCell id="hkS3TEEYYJLq3DjDljIm-8" value="MainLoop" style="whiteSpace=wrap;strokeWidth=2;" vertex="1" parent="1">
          <mxGeometry x="123" y="921" width="128" height="49" as="geometry" />
        </mxCell>
        <mxCell id="hkS3TEEYYJLq3DjDljIm-9" value="" style="curved=1;startArrow=none;endArrow=block;exitX=0.49;exitY=1;entryX=0.5;entryY=0;rounded=0;" edge="1" parent="1" source="hkS3TEEYYJLq3DjDljIm-1" target="hkS3TEEYYJLq3DjDljIm-2">
          <mxGeometry relative="1" as="geometry">
            <Array as="points" />
          </mxGeometry>
        </mxCell>
        <mxCell id="hkS3TEEYYJLq3DjDljIm-10" value="" style="curved=1;startArrow=none;endArrow=block;exitX=0.5;exitY=1;entryX=0.5;entryY=0;rounded=0;" edge="1" parent="1" source="hkS3TEEYYJLq3DjDljIm-2" target="hkS3TEEYYJLq3DjDljIm-3">
          <mxGeometry relative="1" as="geometry">
            <Array as="points" />
          </mxGeometry>
        </mxCell>
        <mxCell id="hkS3TEEYYJLq3DjDljIm-11" value="" style="curved=1;startArrow=none;endArrow=block;exitX=0.5;exitY=1;entryX=0.5;entryY=0;rounded=0;" edge="1" parent="1" source="hkS3TEEYYJLq3DjDljIm-3" target="hkS3TEEYYJLq3DjDljIm-4">
          <mxGeometry relative="1" as="geometry">
            <Array as="points" />
          </mxGeometry>
        </mxCell>
        <mxCell id="hkS3TEEYYJLq3DjDljIm-12" value="Yes" style="curved=1;startArrow=none;endArrow=block;exitX=0.23;exitY=1;entryX=0.5;entryY=0;rounded=0;" edge="1" parent="1" source="hkS3TEEYYJLq3DjDljIm-4" target="hkS3TEEYYJLq3DjDljIm-5">
          <mxGeometry relative="1" as="geometry">
            <Array as="points">
              <mxPoint x="115" y="546" />
            </Array>
          </mxGeometry>
        </mxCell>
        <mxCell id="hkS3TEEYYJLq3DjDljIm-13" value="No" style="curved=1;startArrow=none;endArrow=block;exitX=0.92;exitY=1;entryX=0.55;entryY=-0.01;rounded=0;" edge="1" parent="1" source="hkS3TEEYYJLq3DjDljIm-4" target="hkS3TEEYYJLq3DjDljIm-6">
          <mxGeometry relative="1" as="geometry">
            <Array as="points">
              <mxPoint x="298" y="546" />
              <mxPoint x="298" y="785" />
            </Array>
          </mxGeometry>
        </mxCell>
        <mxCell id="hkS3TEEYYJLq3DjDljIm-14" value="Yes" style="curved=1;startArrow=none;endArrow=block;exitX=0.41;exitY=1;entryX=0.5;entryY=-0.01;rounded=0;" edge="1" parent="1" source="hkS3TEEYYJLq3DjDljIm-5" target="hkS3TEEYYJLq3DjDljIm-7">
          <mxGeometry relative="1" as="geometry">
            <Array as="points">
              <mxPoint x="92" y="785" />
            </Array>
          </mxGeometry>
        </mxCell>
        <mxCell id="hkS3TEEYYJLq3DjDljIm-15" value="No" style="curved=1;startArrow=none;endArrow=block;exitX=0.9;exitY=1;entryX=0.28;entryY=-0.01;rounded=0;" edge="1" parent="1" source="hkS3TEEYYJLq3DjDljIm-5" target="hkS3TEEYYJLq3DjDljIm-6">
          <mxGeometry relative="1" as="geometry">
            <Array as="points">
              <mxPoint x="210" y="785" />
            </Array>
          </mxGeometry>
        </mxCell>
        <mxCell id="hkS3TEEYYJLq3DjDljIm-16" value="" style="curved=1;startArrow=none;endArrow=block;exitX=0.5;exitY=0.99;entryX=0.14;entryY=-0.01;rounded=0;" edge="1" parent="1" source="hkS3TEEYYJLq3DjDljIm-7" target="hkS3TEEYYJLq3DjDljIm-8">
          <mxGeometry relative="1" as="geometry">
            <Array as="points">
              <mxPoint x="92" y="896" />
            </Array>
          </mxGeometry>
        </mxCell>
        <mxCell id="hkS3TEEYYJLq3DjDljIm-17" value="" style="curved=1;startArrow=none;endArrow=block;exitX=0.5;exitY=0.99;entryX=0.87;entryY=-0.01;rounded=0;" edge="1" parent="1" source="hkS3TEEYYJLq3DjDljIm-6" target="hkS3TEEYYJLq3DjDljIm-8">
          <mxGeometry relative="1" as="geometry">
            <Array as="points">
              <mxPoint x="282" y="896" />
            </Array>
          </mxGeometry>
        </mxCell>
      </root>
    </mxGraphModel>
  </diagram>
</mxfile>
